# xmcd
#
# Track frame offsets:
#  150
#  16872
#  31305
#  52681
#  67160
#  92248
#  114346
#  132547
#  147786
#  165271
#
# Disc length: 2436 seconds
#
# Revision: 2
# Processed by: cddbd v1.5.1PL0 Copyright (c) Steve Scherf et al.
# Submitted via: Collectorz.com_Music_Collector 6.9
#
DISCID=7c09820a
DTITLE=Forced Call - Off The Clock
DYEAR=2004
DGENRE=Blues
TTITLE0=No Place To Hide
TTITLE1=City Nights
TTITLE2=So Good So Bad
TTITLE3=The Only Thing
TTITLE4=Rock N Roll
TTITLE5=Things Are Gonna Be Different
TTITLE6=Red White And Blue
TTITLE7=Walkin' Out On You
TTITLE8=The Truth Will Set You Free
TTITLE9=When I Reach My Destination
EXTD=
EXTT0=
EXTT1=
EXTT2=
EXTT3=
EXTT4=
EXTT5=
EXTT6=
EXTT7=
EXTT8=
EXTT9=
PLAYORDER=
